<svg width="297mm" height="210mm" version="1.1" viewBox="0 0 297 210" xmlns="http://www.w3.org/2000/svg">
 <g transform="matrix(.29081 0 0 .35019 38.06 0)" fill="none" stroke="#09090b" stroke-width="1.2534">
  <path d="m510 600-4.3-25c-4.4-25-13-75-30.5-125s-43.9-100-41.5-150c2.3-50 33.3-100 57.8-150s42.5-100 51.5-125l9-25"/>
  <path d="m510 600-2.2-25c-2.1-25-6.5-75 11.2-125s57.3-100 73.8-150 9.9-100 9.4-150 5.1-100 8-125l2.8-25"/>
  <path d="m589 600 3-25c3-25 9-75 23.2-125 14.1-50 36.5-100 37.8-150s-18.3-100-33.3-150-25.4-100-30.5-125l-5.2-25"/>
  <path d="m729 600-16.2-25c-16.1-25-48.5-75-59.8-125s-1.7-100 15.2-150c16.8-50 40.8-100 47.6-150 6.9-50-3.5-100-8.6-125l-5.2-25"/>
  <path d="m698 600 9.8-25c9.9-25 29.5-75 32-125s-12.1-100-14.6-150 7.1-100 6-150c-1.2-50-13.2-100-19.2-125l-6-25"/>
  <path d="m853 600-3-150c-1-50-2-100-11.8-150-9.9-50-28.5-100-36.5-150s-5.4-100-4-125l1.3-25"/>
 </g>
</svg>
